# xmcd
#
# Track frame offsets:
# 150
# 29282
# 44307
# 60340
# 71962
# 84497
# 96897
# 114697
# 128920
# 145250
#
# Disc length: 2184 seconds
#
#
# Revision: 2
# Processed by: cddbd v1.5.2PL0 Copyright (c) Steve Scherf et al.
# Submitted via: FreeRIP 2.96 
#
DISCID=8b08860a
DTITLE=Wilco - Being There [CD1]
DYEAR=1996
DGENRE=Alt. Country
TTITLE0=Misunderstood
TTITLE1=Far, Far Away
TTITLE2=Monday
TTITLE3=Outtasite (Outta Mind)
TTITLE4=Forget the Flowers
TTITLE5=Red-Eyed and Blue
TTITLE6=I Got You (At the End of the Century)
TTITLE7=What's the World Got in Store
TTITLE8=Hotel Arizona
TTITLE9=Say You Miss Me
EXTD=
EXTT0=
EXTT1=
EXTT2=
EXTT3=
EXTT4=
EXTT5=
EXTT6=
EXTT7=
EXTT8=
EXTT9=
PLAYORDER=
